<svg xmlns="http://www.w3.org/2000/svg" viewBox="0 0 128 128">
  <rect x="8" y="8" width="112" height="112" rx="24" fill="#16A394"/>
  <path fill="#ffffff" d="M44 40c-9 0-13 4-13 12v6c0 4-2 6-6 6v8c4 0 6 2 6 6v6c0 8 4 12 13 12v-8c-3 0-5-1-5-5v-7c0-4-2-6-5-7 3-1 5-3 5-7v-7c0-4 2-5 5-5z"/>
  <path fill="#ffffff" d="M84 40c9 0 13 4 13 12v6c0 4 2 6 6 6v8c-4 0-6 2-6 6v6c0 8-4 12-13 12v-8c3 0 5-1 5-5v-7c0-4 2-6 5-7-3-1-5-3-5-7v-7c0-4-2-5-5-5z"/>
  <circle cx="64" cy="64" r="6" fill="#ffffff"/>
</svg>
