<svg xmlns="http://www.w3.org/2000/svg" viewBox="0 0 800 500" width="800" height="500" role="img" aria-label="Banking system">
  <defs>
    <linearGradient id="bk-bg" x1="0" y1="0" x2="1" y2="1">
      <stop offset="0" stop-color="#eef3ee"/>
      <stop offset="0.5" stop-color="#e3eef0"/>
      <stop offset="1" stop-color="#eef0f6"/>
    </linearGradient>
    <linearGradient id="bk-bar" x1="0" y1="1" x2="0" y2="0">
      <stop offset="0" stop-color="#8fb3e0"/>
      <stop offset="1" stop-color="#a9dce3"/>
    </linearGradient>
  </defs>
  <rect width="800" height="500" fill="url(#bk-bg)"/>
  <g fill="url(#bk-bar)">
    <rect x="150" y="300" width="64" height="120" rx="10"/>
    <rect x="244" y="250" width="64" height="170" rx="10"/>
    <rect x="338" y="190" width="64" height="230" rx="10"/>
    <rect x="432" y="140" width="64" height="280" rx="10"/>
  </g>
  <path d="M150 300 L276 250 L370 190 L520 110" fill="none" stroke="#1c1b1a" stroke-opacity="0.55" stroke-width="4" stroke-linecap="round" stroke-linejoin="round"/>
  <path d="M520 110 l-34 6 m34 -6 l-6 34" fill="none" stroke="#1c1b1a" stroke-opacity="0.55" stroke-width="4" stroke-linecap="round" stroke-linejoin="round"/>
  <g transform="translate(560 250)">
    <circle r="48" fill="#ffffff" stroke="#7e9cc9" stroke-width="3"/>
    <path d="M-12 -18 V18 M12 -18 V18 M-18 -8 H18 a8 8 0 0 1 0 16 H-12" fill="none" stroke="#7e9cc9" stroke-width="4" stroke-linecap="round"/>
  </g>
</svg>
