<svg xmlns="http://www.w3.org/2000/svg" viewBox="0 0 800 500" width="800" height="500" role="img" aria-label="Company product websites">
  <defs>
    <linearGradient id="cw-bg" x1="0" y1="0" x2="1" y2="1">
      <stop offset="0" stop-color="#e7eef9"/>
      <stop offset="0.5" stop-color="#dfe9f4"/>
      <stop offset="1" stop-color="#f3ece0"/>
    </linearGradient>
  </defs>
  <rect width="800" height="500" fill="url(#cw-bg)"/>
  <rect x="200" y="120" width="400" height="260" rx="16" fill="#ffffff" stroke="#7e9cc9" stroke-opacity="0.35"/>
  <rect x="200" y="120" width="400" height="46" rx="16" fill="#eef2f9"/>
  <circle cx="226" cy="143" r="6" fill="#e7b3b0"/>
  <circle cx="248" cy="143" r="6" fill="#e7d6b8"/>
  <circle cx="270" cy="143" r="6" fill="#a9dce3"/>
  <g fill="none" stroke="#7e9cc9" stroke-width="3" stroke-opacity="0.6">
    <circle cx="320" cy="250" r="46"/>
    <path d="M274 250 H366 M320 204 V296 M286 222 C 310 240, 330 240, 354 222 M286 278 C 310 260, 330 260, 354 278"/>
  </g>
  <g fill="#cdddf1">
    <rect x="400" y="210" width="160" height="14" rx="7"/>
    <rect x="400" y="240" width="130" height="14" rx="7"/>
    <rect x="400" y="270" width="150" height="14" rx="7"/>
  </g>
  <rect x="400" y="306" width="90" height="30" rx="15" fill="#7e9cc9"/>
</svg>
